<svg width="260" height="214" viewBox="0 0 260 214" fill="none" xmlns="http://www.w3.org/2000/svg">
<path fill-rule="evenodd" clip-rule="evenodd" d="M132.333 0.636353C161.174 0.636352 184.613 4.44639 197.474 6.67358L199.12 6.96199C216.052 9.97556 230.517 13.8268 240.965 18.584C246.349 21.0354 250.96 23.8577 254.293 27.1652C257.671 30.5175 260 34.6558 260 39.5101V186.992C260 187.167 259.995 187.342 259.99 187.516C259.995 187.664 260 187.813 260 187.961C260 188.366 259.951 188.76 259.862 189.138C259.282 193.671 256.921 197.351 254.015 200.2C250.866 203.286 246.865 205.626 243.011 207.394C235.295 210.934 227.031 212.684 224.061 213.254C220.364 213.962 217.035 211.117 217.035 207.472V165.512C217.035 164.615 216.49 163.805 215.653 163.474C207.915 160.414 199.029 157.625 189.131 155.368L187.977 155.108L187.719 155.044C185.079 154.317 183.448 151.647 184.051 148.955C184.654 146.262 187.27 144.536 189.97 144.994L190.232 145.045L191.441 145.318C199.602 147.179 207.153 149.393 214.02 151.842C215.482 152.363 217.036 151.294 217.036 149.748V137.389L217.035 137.318V100.837C217.035 100.614 217.051 100.394 217.078 100.179L217.105 77.3416L217.114 76.7173C217.479 63.6776 228.738 55.0201 239.15 51.6198L239.743 51.4191C242.679 50.3904 245.105 48.9999 246.79 47.2238C248.474 45.4498 249.645 43.0667 249.646 39.5101C249.646 38.1927 249.063 36.5316 246.984 34.4683C244.859 32.36 241.465 30.1489 236.66 27.9607C227.365 23.7285 213.887 20.0661 197.313 17.1154L195.7 16.832C183.033 14.6383 160.282 10.9472 132.333 10.9472C105.191 10.9473 82.0971 13.877 66.178 16.5716L64.6598 16.832C48.2048 19.6817 34.0366 23.4113 24.1123 27.8182C19.1358 30.0281 15.5191 32.2819 13.2212 34.4546C10.9453 36.6065 10.3545 38.2816 10.3545 39.5101C10.3546 43.0667 11.5262 45.4498 13.2096 47.2238C15.0072 49.1181 17.6475 50.5739 20.8498 51.6198L21.3467 51.7859C31.7823 55.353 42.8787 64.1632 42.8942 77.3416L42.9209 100.177C42.9487 100.393 42.9643 100.614 42.9643 100.837V149.748C42.9643 151.294 44.5181 152.363 45.9797 151.842C53.1932 149.27 61.1518 146.959 69.7684 145.045C72.5591 144.425 75.3257 146.176 75.9482 148.955C76.5704 151.733 74.8131 154.489 72.0226 155.108C61.6453 157.413 52.3706 160.301 44.346 163.475C43.5083 163.806 42.9643 164.615 42.9643 165.513V207.472C42.9641 211.003 39.841 213.785 36.284 213.311L35.9387 213.255C32.934 212.678 24.4916 210.889 16.6866 207.254C12.7888 205.439 8.7473 203.027 5.61782 199.832C2.87193 197.029 0.69078 193.462 0.137954 189.139C0.0492059 188.761 2.1822e-05 188.367 0 187.961C1.91238e-06 187.811 0.00325801 187.661 0.00866724 187.512C0.0034681 187.34 4.69638e-06 187.166 0 186.992V39.5101C0 34.4969 2.57661 30.3004 6.09091 26.9775C9.58323 23.6754 14.3799 20.8504 19.8949 18.4014C30.954 13.4905 46.0838 9.58339 62.8859 6.67358L64.4424 6.40674C80.7637 3.64399 104.459 0.636379 132.333 0.636353ZM230.593 170.445C229.143 169.644 227.39 170.707 227.389 172.359V199.073C227.389 200.519 228.762 201.577 230.154 201.165C232.844 200.37 235.829 199.336 238.678 198.029C241.961 196.523 244.783 194.781 246.751 192.852C248.481 191.156 249.363 189.516 249.586 187.862C249.61 187.689 249.605 187.512 249.568 187.342C249.419 186.669 249.023 185.663 248.11 184.322C246.958 182.63 245.16 180.663 242.629 178.522C239.536 175.905 235.508 173.161 230.593 170.445ZM32.6098 172.36C32.6097 170.708 30.8567 169.644 29.4058 170.445C28.0259 171.207 26.7129 171.973 25.4687 172.74C20.0806 176.062 16.1294 179.304 13.5902 182.164C11.4569 184.567 10.6621 186.307 10.4325 187.335C10.394 187.507 10.3902 187.685 10.4137 187.86C10.6288 189.461 11.4535 191.024 13.0298 192.633C14.9483 194.592 17.7586 196.371 21.073 197.914C23.9958 199.275 27.0769 200.346 29.8449 201.164C31.2372 201.576 32.6098 200.518 32.6098 199.072V172.36ZM249.646 136.993C249.646 135.216 247.621 134.133 246.056 134.989C244.679 135.742 243.284 136.418 241.916 137.024C237.324 139.057 232.639 140.467 229.093 141.371C228.097 141.625 227.39 142.512 227.39 143.537V155.864C227.39 156.724 227.893 157.505 228.673 157.875C237.171 161.907 244.16 166.287 249.334 170.665C249.456 170.768 249.646 170.682 249.646 170.522V136.993ZM13.9442 134.989C12.3794 134.134 10.3545 135.216 10.3545 136.994V166.11C10.3545 168 12.6143 169.052 14.1399 167.927C15.9509 166.591 17.915 165.27 20.0184 163.974C23.3904 161.895 27.1696 159.847 31.3278 157.875C32.1076 157.505 32.6098 156.724 32.6098 155.864V143.537C32.6098 142.512 31.9031 141.625 30.9067 141.371C27.3612 140.467 22.6762 139.057 18.0842 137.024C16.7161 136.418 15.3213 135.742 13.9442 134.989ZM13.8921 59.9758C12.3033 59.2559 10.3545 60.3492 10.3545 62.0874V115.956L10.3653 116.338C10.475 118.25 11.4145 120.116 13.4046 122.043C15.5802 124.15 18.7188 126.021 22.2907 127.602C24.8415 128.732 27.4535 129.644 29.8211 130.363C31.217 130.787 32.6006 129.727 32.599 128.274L32.5397 77.3538C32.5318 70.6114 26.5484 64.465 18.0308 61.5538L17.6234 61.4178C16.3892 61.0148 15.1347 60.5387 13.8921 59.9758ZM249.646 62.0867C249.646 60.3485 247.697 59.2557 246.108 59.9758C245.127 60.4203 244.139 60.8104 243.159 61.1532L242.377 61.4178C233.779 64.2256 227.661 70.3101 227.465 77.0331L227.46 77.3538L227.4 128.274C227.398 129.727 228.782 130.787 230.178 130.363C232.546 129.644 235.158 128.732 237.709 127.602C241.281 126.021 244.419 124.15 246.595 122.043C248.717 119.987 249.645 118.002 249.646 115.956V62.0867Z" fill="url(#paint0_linear_2019_14)"/>
<path d="M191.324 96.8176C193.151 94.4865 196.522 94.0765 198.853 95.9026C201.185 97.7288 201.594 101.099 199.768 103.431C196.691 107.359 190.066 115.214 180.092 119.702C170.911 123.834 159.351 124.901 145.988 118.57C145.088 118.143 144.01 118.308 143.305 119.013L123.316 139.001C122.054 140.262 122.649 142.422 124.366 142.907C131.641 144.962 137.219 147.212 141.36 149.671C147.856 153.528 151.726 158.508 151.727 164.662C151.727 170.199 148.493 174.988 145.54 178.495C142.531 182.068 138.606 185.632 136.081 188.156L135.881 188.347C133.776 190.249 130.526 190.185 128.497 188.156C126.403 186.062 126.403 182.667 128.497 180.573L129.66 179.423C132.372 176.771 135.042 174.31 137.335 171.587C140.011 168.41 141.001 166.161 141.001 164.662C141.001 163.779 140.648 161.721 135.885 158.893C131.525 156.305 124.257 153.6 112.74 151.062C111.979 150.894 111.185 151.129 110.634 151.68L74.1557 188.156L73.9552 188.347C71.8499 190.249 68.5995 190.185 66.5706 188.156C64.4765 186.062 64.4764 182.667 66.5706 180.573L131.539 115.609C132.74 114.409 132.264 112.373 130.622 111.938C120.022 109.136 111.23 110.723 104.451 113.723C95.188 117.823 89.6021 124.596 88.3248 127.15C87.0001 129.799 83.7793 130.872 81.1302 129.548C78.481 128.223 77.407 125.002 78.7316 122.353L78.9785 121.879C81.6829 116.876 89.1006 108.788 100.11 103.915C111.645 98.8099 127.083 97.2463 145.092 105.963L145.951 106.385L146.135 106.478L146.312 106.583L146.899 106.931C159.19 114.098 168.67 113.081 175.691 109.922C183.199 106.544 188.497 100.426 191.324 96.8176Z" fill="white"/>
<path fill-rule="evenodd" clip-rule="evenodd" d="M163.255 53.8182C176.282 53.8183 186.843 64.3784 186.843 77.4047C186.843 90.4312 176.282 100.991 163.255 100.991C150.227 100.991 139.666 90.4313 139.666 77.4047C139.666 64.3784 150.227 53.8182 163.255 53.8182ZM163.255 64.5432C156.151 64.5432 150.392 70.3016 150.392 77.4047C150.392 84.508 156.151 90.2663 163.255 90.2663C170.358 90.2662 176.117 84.508 176.117 77.4047C176.117 70.3017 170.358 64.5433 163.255 64.5432Z" fill="white"/>
<defs>
<linearGradient id="paint0_linear_2019_14" x1="130" y1="-28.9091" x2="-5.30568e-06" y2="213.364" gradientUnits="userSpaceOnUse">
<stop stop-color="#FFACD8"/>
<stop offset="0.519231" stop-color="#D47AE6"/>
<stop offset="1" stop-color="#751D92"/>
</linearGradient>
</defs>
</svg>
