<svg width="1101" height="1101" viewBox="0 0 1101 1101" fill="none" xmlns="http://www.w3.org/2000/svg">
<path fill-rule="evenodd" clip-rule="evenodd" d="M324.625 324.886H461.88V550.377H638.351V324.886H775.606V775.867H638.351V687.631H461.88V775.867H324.625V324.886Z" fill="white"/>
<path fill-rule="evenodd" clip-rule="evenodd" d="M550.116 963.127C778.071 963.127 962.866 778.332 962.866 550.377C962.866 322.421 778.071 137.627 550.116 137.627C322.16 137.627 137.366 322.421 137.366 550.377C137.366 778.332 322.16 963.127 550.116 963.127ZM550.116 1100.38C853.872 1100.38 1100.12 854.133 1100.12 550.377C1100.12 246.62 853.872 0.376526 550.116 0.376526C246.359 0.376526 0.115723 246.62 0.115723 550.377C0.115723 854.133 246.359 1100.38 550.116 1100.38Z" fill="white"/>
</svg>
