<svg width="64" height="96" viewBox="0 0 64 96" fill="none" xmlns="http://www.w3.org/2000/svg">
<path fill-rule="evenodd" clip-rule="evenodd" d="M38 0L26 6V19.5089C11.1948 22.0541 0 33.8423 0 48C0 62.1577 11.1948 73.9459 26 76.4911V96L38 90V76.4911C52.8052 73.9459 64 62.1577 64 48C64 33.8423 52.8052 22.0541 38 19.5089V0ZM26 31.7562C17.3101 34.0439 12 41.1547 12 48C12 54.8453 17.3101 61.9561 26 64.2438V31.7562ZM38 64.2438V31.7562C46.6899 34.0439 52 41.1547 52 48C52 54.8453 46.6899 61.9561 38 64.2438Z" fill="white"/>
</svg>
